{
    "asset" : {
        "copyright" : "Copyright \u00a9 The Rollsmith",
        "generator" : "Khronos glTF Blender I/O v1.8.19",
        "version" : "2.0"
    },
    "scene" : 0,
    "scenes" : [
        {
            "name" : "Scene",
            "nodes" : [
                0
            ]
        }
    ],
    "nodes" : [
        {
            "mesh" : 0,
            "name" : "dice_20"
        }
    ],
    "materials" : [
        {
            "doubleSided" : true,
            "emissiveFactor" : [
                0.75,
                0.75,
                0.75
            ],
            "emissiveTexture" : {
                "index" : 0
            },
            "name" : "MAT_Lava_d20",
            "normalTexture" : {
                "index" : 1
            },
            "pbrMetallicRoughness" : {
                "baseColorTexture" : {
                    "index" : 2
                },
                "metallicRoughnessTexture" : {
                    "index" : 3
                }
            }
        }
    ],
    "meshes" : [
        {
            "name" : "Mesh_0.014",
            "primitives" : [
                {
                    "attributes" : {
                        "POSITION" : 0,
                        "NORMAL" : 1,
                        "TEXCOORD_0" : 2
                    },
                    "indices" : 3,
                    "material" : 0
                }
            ]
        }
    ],
    "textures" : [
        {
            "sampler" : 0,
            "source" : 0
        },
        {
            "sampler" : 0,
            "source" : 1
        },
        {
            "sampler" : 0,
            "source" : 2
        },
        {
            "sampler" : 0,
            "source" : 3
        }
    ],
    "images" : [
        {
            "mimeType" : "image/webp",
            "name" : "MAT_Lava_d20_Emissive",
            "uri" : "textures/MAT_Lava_d20_Emissive.webp"
        },
        {
            "mimeType" : "image/webp",
            "name" : "MAT_Lava_d20_Normal",
            "uri" : "textures/MAT_Lava_d20_Normal.webp"
        },
        {
            "mimeType" : "image/webp",
            "name" : "MAT_Lava_d20_BaseColor",
            "uri" : "textures/MAT_Lava_d20_BaseColor.webp"
        },
        {
            "mimeType" : "image/webp",
            "name" : "MAT_Lava_d20_Metallic-MAT_Lava_d20_Roughness",
            "uri" : "textures/MAT_Lava_d20_Metallic-MAT_Lava_d20_Roughness.webp"
        }
    ],
    "accessors" : [
        {
            "bufferView" : 0,
            "componentType" : 5126,
            "count" : 492,
            "max" : [
                84.78999328613281,
                84.78999328613281,
                84.78999328613281
            ],
            "min" : [
                -84.78999328613281,
                -84.78999328613281,
                -84.78999328613281
            ],
            "type" : "VEC3"
        },
        {
            "bufferView" : 1,
            "componentType" : 5126,
            "count" : 492,
            "type" : "VEC3"
        },
        {
            "bufferView" : 2,
            "componentType" : 5126,
            "count" : 492,
            "type" : "VEC2"
        },
        {
            "bufferView" : 3,
            "componentType" : 5123,
            "count" : 2220,
            "type" : "SCALAR"
        }
    ],
    "bufferViews" : [
        {
            "buffer" : 0,
            "byteLength" : 5904,
            "byteOffset" : 0
        },
        {
            "buffer" : 0,
            "byteLength" : 5904,
            "byteOffset" : 5904
        },
        {
            "buffer" : 0,
            "byteLength" : 3936,
            "byteOffset" : 11808
        },
        {
            "buffer" : 0,
            "byteLength" : 4440,
            "byteOffset" : 15744
        }
    ],
    "samplers" : [
        {
            "magFilter" : 9729,
            "minFilter" : 9987
        }
    ],
    "buffers" : [
        {
            "byteLength" : 20184,
            "uri" : "dice_20.bin"
        }
    ]
}
